<mxfile host="app.diagrams.net" modified="2020-09-14T09:56:57.919Z" agent="5.0 (Macintosh; Intel Mac OS X 10_14_6) AppleWebKit/537.36 (KHTML, like Gecko) Chrome/85.0.4183.83 Safari/537.36" etag="-blle4jvqjMhwHAbxZ3h" version="13.6.10" type="github">
  <diagram id="C5RBs43oDa-KdzZeNtuy" name="Page-1">
    <mxGraphModel dx="1494" dy="843" grid="1" gridSize="10" guides="1" tooltips="1" connect="1" arrows="1" fold="1" page="1" pageScale="1" pageWidth="827" pageHeight="1169" math="0" shadow="0">
      <root>
        <mxCell id="WIyWlLk6GJQsqaUBKTNV-0" />
        <mxCell id="WIyWlLk6GJQsqaUBKTNV-1" parent="WIyWlLk6GJQsqaUBKTNV-0" />
        <mxCell id="wRGIq1YsfaUxYsJgpI3D-0" value="开始" style="strokeWidth=2;html=1;shape=mxgraph.flowchart.terminator;whiteSpace=wrap;rounded=0;sketch=0;fontSize=16;" vertex="1" parent="WIyWlLk6GJQsqaUBKTNV-1">
          <mxGeometry x="80" y="100" width="100" height="60" as="geometry" />
        </mxCell>
        <mxCell id="wRGIq1YsfaUxYsJgpI3D-1" value="handler1" style="rounded=0;whiteSpace=wrap;html=1;sketch=0;fontSize=16;" vertex="1" parent="WIyWlLk6GJQsqaUBKTNV-1">
          <mxGeometry x="70" y="240" width="120" height="60" as="geometry" />
        </mxCell>
        <mxCell id="wRGIq1YsfaUxYsJgpI3D-3" value="handler2" style="rounded=0;whiteSpace=wrap;html=1;sketch=0;fontSize=16;" vertex="1" parent="WIyWlLk6GJQsqaUBKTNV-1">
          <mxGeometry x="70" y="380" width="120" height="60" as="geometry" />
        </mxCell>
        <mxCell id="wRGIq1YsfaUxYsJgpI3D-4" value="" style="endArrow=classic;html=1;fontSize=16;exitX=0.5;exitY=1;exitDx=0;exitDy=0;exitPerimeter=0;" edge="1" parent="WIyWlLk6GJQsqaUBKTNV-1" source="wRGIq1YsfaUxYsJgpI3D-0" target="wRGIq1YsfaUxYsJgpI3D-1">
          <mxGeometry width="50" height="50" relative="1" as="geometry">
            <mxPoint x="170" y="450" as="sourcePoint" />
            <mxPoint x="220" y="400" as="targetPoint" />
          </mxGeometry>
        </mxCell>
        <mxCell id="wRGIq1YsfaUxYsJgpI3D-5" value="" style="endArrow=classic;html=1;fontSize=16;exitX=0.5;exitY=1;exitDx=0;exitDy=0;" edge="1" parent="WIyWlLk6GJQsqaUBKTNV-1" source="wRGIq1YsfaUxYsJgpI3D-1">
          <mxGeometry width="50" height="50" relative="1" as="geometry">
            <mxPoint x="129.5" y="310" as="sourcePoint" />
            <mxPoint x="130" y="380" as="targetPoint" />
          </mxGeometry>
        </mxCell>
        <mxCell id="wRGIq1YsfaUxYsJgpI3D-7" value="开始" style="strokeWidth=2;html=1;shape=mxgraph.flowchart.terminator;whiteSpace=wrap;rounded=0;sketch=0;fontSize=16;" vertex="1" parent="WIyWlLk6GJQsqaUBKTNV-1">
          <mxGeometry x="470" y="100" width="100" height="60" as="geometry" />
        </mxCell>
        <mxCell id="wRGIq1YsfaUxYsJgpI3D-8" value="handler1" style="rounded=0;whiteSpace=wrap;html=1;sketch=0;fontSize=16;" vertex="1" parent="WIyWlLk6GJQsqaUBKTNV-1">
          <mxGeometry x="460" y="240" width="120" height="60" as="geometry" />
        </mxCell>
        <mxCell id="wRGIq1YsfaUxYsJgpI3D-9" value="handler2" style="rounded=0;whiteSpace=wrap;html=1;sketch=0;fontSize=16;" vertex="1" parent="WIyWlLk6GJQsqaUBKTNV-1">
          <mxGeometry x="460" y="380" width="120" height="60" as="geometry" />
        </mxCell>
        <mxCell id="wRGIq1YsfaUxYsJgpI3D-10" value="" style="endArrow=classic;html=1;fontSize=16;exitX=0.5;exitY=1;exitDx=0;exitDy=0;exitPerimeter=0;" edge="1" parent="WIyWlLk6GJQsqaUBKTNV-1" source="wRGIq1YsfaUxYsJgpI3D-7" target="wRGIq1YsfaUxYsJgpI3D-8">
          <mxGeometry width="50" height="50" relative="1" as="geometry">
            <mxPoint x="560" y="450" as="sourcePoint" />
            <mxPoint x="610" y="400" as="targetPoint" />
          </mxGeometry>
        </mxCell>
        <mxCell id="wRGIq1YsfaUxYsJgpI3D-12" value="res === undefined" style="strokeWidth=2;html=1;shape=mxgraph.flowchart.decision;whiteSpace=wrap;rounded=0;sketch=0;fontSize=16;" vertex="1" parent="WIyWlLk6GJQsqaUBKTNV-1">
          <mxGeometry x="670" y="220" width="100" height="100" as="geometry" />
        </mxCell>
        <mxCell id="wRGIq1YsfaUxYsJgpI3D-14" value="" style="endArrow=classic;html=1;fontSize=16;exitX=1;exitY=0.5;exitDx=0;exitDy=0;entryX=0;entryY=0.5;entryDx=0;entryDy=0;entryPerimeter=0;" edge="1" parent="WIyWlLk6GJQsqaUBKTNV-1" source="wRGIq1YsfaUxYsJgpI3D-8" target="wRGIq1YsfaUxYsJgpI3D-12">
          <mxGeometry width="50" height="50" relative="1" as="geometry">
            <mxPoint x="530" y="170" as="sourcePoint" />
            <mxPoint x="530" y="250" as="targetPoint" />
          </mxGeometry>
        </mxCell>
        <mxCell id="wRGIq1YsfaUxYsJgpI3D-20" value="结束" style="strokeWidth=2;html=1;shape=mxgraph.flowchart.terminator;whiteSpace=wrap;rounded=0;sketch=0;fontSize=16;" vertex="1" parent="WIyWlLk6GJQsqaUBKTNV-1">
          <mxGeometry x="470" y="540" width="100" height="60" as="geometry" />
        </mxCell>
        <mxCell id="wRGIq1YsfaUxYsJgpI3D-21" value="" style="curved=1;endArrow=classic;html=1;fontSize=16;entryX=0.5;entryY=0;entryDx=0;entryDy=0;entryPerimeter=0;exitX=1;exitY=0.5;exitDx=0;exitDy=0;exitPerimeter=0;fillColor=#6a00ff;strokeColor=#3700CC;" edge="1" parent="WIyWlLk6GJQsqaUBKTNV-1" source="wRGIq1YsfaUxYsJgpI3D-12" target="wRGIq1YsfaUxYsJgpI3D-20">
          <mxGeometry width="50" height="50" relative="1" as="geometry">
            <mxPoint x="570" y="520" as="sourcePoint" />
            <mxPoint x="620" y="470" as="targetPoint" />
            <Array as="points">
              <mxPoint x="750" y="460" />
              <mxPoint x="570" y="470" />
            </Array>
          </mxGeometry>
        </mxCell>
        <mxCell id="wRGIq1YsfaUxYsJgpI3D-22" value="否" style="edgeLabel;html=1;align=center;verticalAlign=middle;resizable=0;points=[];fontSize=16;" vertex="1" connectable="0" parent="wRGIq1YsfaUxYsJgpI3D-21">
          <mxGeometry x="-0.1645" y="-57" relative="1" as="geometry">
            <mxPoint x="-54" y="52" as="offset" />
          </mxGeometry>
        </mxCell>
        <mxCell id="wRGIq1YsfaUxYsJgpI3D-23" value="" style="curved=1;endArrow=classic;html=1;fontSize=16;entryX=1;entryY=0.25;entryDx=0;entryDy=0;exitX=0.5;exitY=1;exitDx=0;exitDy=0;exitPerimeter=0;fillColor=#f8cecc;strokeColor=#b85450;" edge="1" parent="WIyWlLk6GJQsqaUBKTNV-1" source="wRGIq1YsfaUxYsJgpI3D-12" target="wRGIq1YsfaUxYsJgpI3D-9">
          <mxGeometry width="50" height="50" relative="1" as="geometry">
            <mxPoint x="780" y="280" as="sourcePoint" />
            <mxPoint x="530" y="550" as="targetPoint" />
            <Array as="points">
              <mxPoint x="660" y="350" />
              <mxPoint x="650" y="360" />
              <mxPoint x="650" y="340" />
              <mxPoint x="650" y="350" />
            </Array>
          </mxGeometry>
        </mxCell>
        <mxCell id="wRGIq1YsfaUxYsJgpI3D-26" value="是" style="edgeLabel;html=1;align=center;verticalAlign=middle;resizable=0;points=[];fontSize=16;" vertex="1" connectable="0" parent="wRGIq1YsfaUxYsJgpI3D-23">
          <mxGeometry x="-0.072" y="-1" relative="1" as="geometry">
            <mxPoint as="offset" />
          </mxGeometry>
        </mxCell>
        <mxCell id="wRGIq1YsfaUxYsJgpI3D-27" value="" style="endArrow=classic;html=1;fontSize=16;exitX=0.5;exitY=1;exitDx=0;exitDy=0;entryX=0.5;entryY=0;entryDx=0;entryDy=0;entryPerimeter=0;fillColor=#f8cecc;strokeColor=#b85450;" edge="1" parent="WIyWlLk6GJQsqaUBKTNV-1" source="wRGIq1YsfaUxYsJgpI3D-9" target="wRGIq1YsfaUxYsJgpI3D-20">
          <mxGeometry width="50" height="50" relative="1" as="geometry">
            <mxPoint x="530" y="170" as="sourcePoint" />
            <mxPoint x="530" y="250" as="targetPoint" />
          </mxGeometry>
        </mxCell>
        <mxCell id="wRGIq1YsfaUxYsJgpI3D-28" value="开始" style="strokeWidth=2;html=1;shape=mxgraph.flowchart.terminator;whiteSpace=wrap;rounded=0;sketch=0;fontSize=16;" vertex="1" parent="WIyWlLk6GJQsqaUBKTNV-1">
          <mxGeometry x="80" y="750" width="100" height="60" as="geometry" />
        </mxCell>
        <mxCell id="wRGIq1YsfaUxYsJgpI3D-29" value="handler1&lt;br&gt;参数是arg0" style="rounded=0;whiteSpace=wrap;html=1;sketch=0;fontSize=16;" vertex="1" parent="WIyWlLk6GJQsqaUBKTNV-1">
          <mxGeometry x="70" y="890" width="120" height="60" as="geometry" />
        </mxCell>
        <mxCell id="wRGIq1YsfaUxYsJgpI3D-30" value="handler2&lt;br&gt;参数是res1" style="rounded=0;whiteSpace=wrap;html=1;sketch=0;fontSize=16;" vertex="1" parent="WIyWlLk6GJQsqaUBKTNV-1">
          <mxGeometry x="70" y="1030" width="120" height="60" as="geometry" />
        </mxCell>
        <mxCell id="wRGIq1YsfaUxYsJgpI3D-31" value="" style="endArrow=classic;html=1;fontSize=16;exitX=0.5;exitY=1;exitDx=0;exitDy=0;exitPerimeter=0;" edge="1" parent="WIyWlLk6GJQsqaUBKTNV-1" source="wRGIq1YsfaUxYsJgpI3D-28" target="wRGIq1YsfaUxYsJgpI3D-29">
          <mxGeometry width="50" height="50" relative="1" as="geometry">
            <mxPoint x="170" y="1100" as="sourcePoint" />
            <mxPoint x="220" y="1050" as="targetPoint" />
          </mxGeometry>
        </mxCell>
        <mxCell id="wRGIq1YsfaUxYsJgpI3D-40" value="call传入arg0" style="edgeLabel;html=1;align=center;verticalAlign=middle;resizable=0;points=[];fontSize=16;" vertex="1" connectable="0" parent="wRGIq1YsfaUxYsJgpI3D-31">
          <mxGeometry x="-0.35" y="-1" relative="1" as="geometry">
            <mxPoint as="offset" />
          </mxGeometry>
        </mxCell>
        <mxCell id="wRGIq1YsfaUxYsJgpI3D-34" value="结束&lt;br&gt;可取的res2" style="strokeWidth=2;html=1;shape=mxgraph.flowchart.terminator;whiteSpace=wrap;rounded=0;sketch=0;fontSize=16;" vertex="1" parent="WIyWlLk6GJQsqaUBKTNV-1">
          <mxGeometry x="80" y="1190" width="100" height="60" as="geometry" />
        </mxCell>
        <mxCell id="wRGIq1YsfaUxYsJgpI3D-41" value="" style="endArrow=classic;html=1;fontSize=16;exitX=0.5;exitY=1;exitDx=0;exitDy=0;" edge="1" parent="WIyWlLk6GJQsqaUBKTNV-1" source="wRGIq1YsfaUxYsJgpI3D-29" target="wRGIq1YsfaUxYsJgpI3D-30">
          <mxGeometry width="50" height="50" relative="1" as="geometry">
            <mxPoint x="360" y="1070" as="sourcePoint" />
            <mxPoint x="410" y="1020" as="targetPoint" />
          </mxGeometry>
        </mxCell>
        <mxCell id="wRGIq1YsfaUxYsJgpI3D-42" value="return res1" style="edgeLabel;html=1;align=center;verticalAlign=middle;resizable=0;points=[];fontSize=16;" vertex="1" connectable="0" parent="wRGIq1YsfaUxYsJgpI3D-41">
          <mxGeometry x="-0.125" y="-2" relative="1" as="geometry">
            <mxPoint as="offset" />
          </mxGeometry>
        </mxCell>
        <mxCell id="wRGIq1YsfaUxYsJgpI3D-43" value="return res2" style="endArrow=classic;html=1;fontSize=16;" edge="1" parent="WIyWlLk6GJQsqaUBKTNV-1" source="wRGIq1YsfaUxYsJgpI3D-30" target="wRGIq1YsfaUxYsJgpI3D-34">
          <mxGeometry width="50" height="50" relative="1" as="geometry">
            <mxPoint x="310" y="1140" as="sourcePoint" />
            <mxPoint x="360" y="1090" as="targetPoint" />
          </mxGeometry>
        </mxCell>
        <mxCell id="wRGIq1YsfaUxYsJgpI3D-44" value="开始" style="strokeWidth=2;html=1;shape=mxgraph.flowchart.terminator;whiteSpace=wrap;rounded=0;sketch=0;fontSize=16;" vertex="1" parent="WIyWlLk6GJQsqaUBKTNV-1">
          <mxGeometry x="520" y="750" width="100" height="60" as="geometry" />
        </mxCell>
        <mxCell id="wRGIq1YsfaUxYsJgpI3D-45" value="handler1" style="rounded=0;whiteSpace=wrap;html=1;sketch=0;fontSize=16;" vertex="1" parent="WIyWlLk6GJQsqaUBKTNV-1">
          <mxGeometry x="510" y="890" width="120" height="60" as="geometry" />
        </mxCell>
        <mxCell id="wRGIq1YsfaUxYsJgpI3D-46" value="handler2" style="rounded=0;whiteSpace=wrap;html=1;sketch=0;fontSize=16;" vertex="1" parent="WIyWlLk6GJQsqaUBKTNV-1">
          <mxGeometry x="510" y="1030" width="120" height="60" as="geometry" />
        </mxCell>
        <mxCell id="wRGIq1YsfaUxYsJgpI3D-47" value="" style="endArrow=classic;html=1;fontSize=16;exitX=0.5;exitY=1;exitDx=0;exitDy=0;exitPerimeter=0;" edge="1" parent="WIyWlLk6GJQsqaUBKTNV-1" source="wRGIq1YsfaUxYsJgpI3D-44" target="wRGIq1YsfaUxYsJgpI3D-45">
          <mxGeometry width="50" height="50" relative="1" as="geometry">
            <mxPoint x="610" y="1100" as="sourcePoint" />
            <mxPoint x="660" y="1050" as="targetPoint" />
          </mxGeometry>
        </mxCell>
        <mxCell id="wRGIq1YsfaUxYsJgpI3D-49" value="结束&lt;br&gt;可取的res2" style="strokeWidth=2;html=1;shape=mxgraph.flowchart.terminator;whiteSpace=wrap;rounded=0;sketch=0;fontSize=16;" vertex="1" parent="WIyWlLk6GJQsqaUBKTNV-1">
          <mxGeometry x="520" y="1190" width="100" height="60" as="geometry" />
        </mxCell>
        <mxCell id="wRGIq1YsfaUxYsJgpI3D-50" value="" style="endArrow=classic;html=1;fontSize=16;exitX=0.5;exitY=1;exitDx=0;exitDy=0;" edge="1" parent="WIyWlLk6GJQsqaUBKTNV-1" source="wRGIq1YsfaUxYsJgpI3D-45" target="wRGIq1YsfaUxYsJgpI3D-46">
          <mxGeometry width="50" height="50" relative="1" as="geometry">
            <mxPoint x="800" y="1070" as="sourcePoint" />
            <mxPoint x="850" y="1020" as="targetPoint" />
          </mxGeometry>
        </mxCell>
        <mxCell id="wRGIq1YsfaUxYsJgpI3D-53" value="res === undefined" style="rhombus;whiteSpace=wrap;html=1;rounded=0;sketch=0;fontSize=16;" vertex="1" parent="WIyWlLk6GJQsqaUBKTNV-1">
          <mxGeometry x="760" y="870" width="80" height="80" as="geometry" />
        </mxCell>
        <mxCell id="wRGIq1YsfaUxYsJgpI3D-54" value="" style="curved=1;endArrow=classic;html=1;fontSize=16;entryX=0;entryY=0.5;entryDx=0;entryDy=0;fillColor=#6a00ff;strokeColor=#3700CC;" edge="1" parent="WIyWlLk6GJQsqaUBKTNV-1" target="wRGIq1YsfaUxYsJgpI3D-53">
          <mxGeometry width="50" height="50" relative="1" as="geometry">
            <mxPoint x="630" y="920" as="sourcePoint" />
            <mxPoint x="630" y="870" as="targetPoint" />
            <Array as="points">
              <mxPoint x="630" y="920" />
              <mxPoint x="680" y="890" />
            </Array>
          </mxGeometry>
        </mxCell>
        <mxCell id="wRGIq1YsfaUxYsJgpI3D-55" value="" style="curved=1;endArrow=classic;html=1;fontSize=16;entryX=1;entryY=0.5;entryDx=0;entryDy=0;fillColor=#6a00ff;strokeColor=#3700CC;exitX=0.5;exitY=1;exitDx=0;exitDy=0;" edge="1" parent="WIyWlLk6GJQsqaUBKTNV-1" source="wRGIq1YsfaUxYsJgpI3D-53" target="wRGIq1YsfaUxYsJgpI3D-46">
          <mxGeometry width="50" height="50" relative="1" as="geometry">
            <mxPoint x="640" y="930" as="sourcePoint" />
            <mxPoint x="770" y="920" as="targetPoint" />
            <Array as="points">
              <mxPoint x="720" y="990" />
              <mxPoint x="710" y="1000" />
              <mxPoint x="680" y="1010" />
            </Array>
          </mxGeometry>
        </mxCell>
        <mxCell id="wRGIq1YsfaUxYsJgpI3D-56" value="是" style="edgeLabel;html=1;align=center;verticalAlign=middle;resizable=0;points=[];fontSize=16;" vertex="1" connectable="0" parent="wRGIq1YsfaUxYsJgpI3D-55">
          <mxGeometry x="-0.0557" y="-1" relative="1" as="geometry">
            <mxPoint as="offset" />
          </mxGeometry>
        </mxCell>
        <mxCell id="wRGIq1YsfaUxYsJgpI3D-57" value="" style="curved=1;endArrow=classic;html=1;fontSize=16;exitX=0.5;exitY=0;exitDx=0;exitDy=0;fillColor=#f8cecc;strokeColor=#b85450;" edge="1" parent="WIyWlLk6GJQsqaUBKTNV-1" source="wRGIq1YsfaUxYsJgpI3D-53">
          <mxGeometry width="50" height="50" relative="1" as="geometry">
            <mxPoint x="580" y="940" as="sourcePoint" />
            <mxPoint x="570" y="890" as="targetPoint" />
            <Array as="points">
              <mxPoint x="690" y="830" />
              <mxPoint x="640" y="850" />
              <mxPoint x="580" y="890" />
            </Array>
          </mxGeometry>
        </mxCell>
        <mxCell id="wRGIq1YsfaUxYsJgpI3D-58" value="否" style="edgeLabel;html=1;align=center;verticalAlign=middle;resizable=0;points=[];fontSize=16;" vertex="1" connectable="0" parent="wRGIq1YsfaUxYsJgpI3D-57">
          <mxGeometry x="-0.2931" y="13" relative="1" as="geometry">
            <mxPoint as="offset" />
          </mxGeometry>
        </mxCell>
        <mxCell id="wRGIq1YsfaUxYsJgpI3D-59" value="res === undefined" style="rhombus;whiteSpace=wrap;html=1;rounded=0;sketch=0;fontSize=16;" vertex="1" parent="WIyWlLk6GJQsqaUBKTNV-1">
          <mxGeometry x="760" y="1070" width="80" height="80" as="geometry" />
        </mxCell>
        <mxCell id="wRGIq1YsfaUxYsJgpI3D-60" value="" style="curved=1;endArrow=classic;html=1;fontSize=16;entryX=0;entryY=0.5;entryDx=0;entryDy=0;fillColor=#6a00ff;strokeColor=#3700CC;" edge="1" parent="WIyWlLk6GJQsqaUBKTNV-1" target="wRGIq1YsfaUxYsJgpI3D-59">
          <mxGeometry width="50" height="50" relative="1" as="geometry">
            <mxPoint x="630" y="1060" as="sourcePoint" />
            <mxPoint x="760" y="1050" as="targetPoint" />
            <Array as="points">
              <mxPoint x="630" y="1060" />
              <mxPoint x="690" y="1060" />
            </Array>
          </mxGeometry>
        </mxCell>
        <mxCell id="wRGIq1YsfaUxYsJgpI3D-61" value="" style="curved=1;endArrow=classic;html=1;fontSize=16;entryX=1;entryY=0.5;entryDx=0;entryDy=0;fillColor=#6a00ff;strokeColor=#3700CC;exitX=0.5;exitY=1;exitDx=0;exitDy=0;entryPerimeter=0;" edge="1" parent="WIyWlLk6GJQsqaUBKTNV-1" source="wRGIq1YsfaUxYsJgpI3D-59" target="wRGIq1YsfaUxYsJgpI3D-49">
          <mxGeometry width="50" height="50" relative="1" as="geometry">
            <mxPoint x="790" y="1190" as="sourcePoint" />
            <mxPoint x="630" y="1260" as="targetPoint" />
            <Array as="points">
              <mxPoint x="720" y="1190" />
              <mxPoint x="710" y="1200" />
              <mxPoint x="680" y="1210" />
            </Array>
          </mxGeometry>
        </mxCell>
        <mxCell id="wRGIq1YsfaUxYsJgpI3D-62" value="是" style="edgeLabel;html=1;align=center;verticalAlign=middle;resizable=0;points=[];fontSize=16;" vertex="1" connectable="0" parent="wRGIq1YsfaUxYsJgpI3D-61">
          <mxGeometry x="-0.0557" y="-1" relative="1" as="geometry">
            <mxPoint as="offset" />
          </mxGeometry>
        </mxCell>
        <mxCell id="wRGIq1YsfaUxYsJgpI3D-63" value="" style="curved=1;endArrow=classic;html=1;fontSize=16;exitX=1;exitY=0.5;exitDx=0;exitDy=0;fillColor=#f8cecc;strokeColor=#b85450;entryX=0.5;entryY=0;entryDx=0;entryDy=0;" edge="1" parent="WIyWlLk6GJQsqaUBKTNV-1" source="wRGIq1YsfaUxYsJgpI3D-59" target="wRGIq1YsfaUxYsJgpI3D-45">
          <mxGeometry width="50" height="50" relative="1" as="geometry">
            <mxPoint x="1140" y="1085" as="sourcePoint" />
            <mxPoint x="910" y="1010" as="targetPoint" />
            <Array as="points">
              <mxPoint x="960" y="960" />
              <mxPoint x="700" y="750" />
            </Array>
          </mxGeometry>
        </mxCell>
        <mxCell id="wRGIq1YsfaUxYsJgpI3D-64" value="否" style="edgeLabel;html=1;align=center;verticalAlign=middle;resizable=0;points=[];fontSize=16;" vertex="1" connectable="0" parent="wRGIq1YsfaUxYsJgpI3D-63">
          <mxGeometry x="-0.2931" y="13" relative="1" as="geometry">
            <mxPoint x="-7.44" y="25.4" as="offset" />
          </mxGeometry>
        </mxCell>
      </root>
    </mxGraphModel>
  </diagram>
</mxfile>
